# xmcd CD database file
#
# Track frame offsets:
#	150
#	31157
#	55808
#	73757
#	90570
#	114288
#	147936
#	165661
#	182578
#	199951
#	213777
#	226282
#	250232
#	268277
#	299461
#	325246
#
# Disc length: 4577 seconds
#
# Revision: 5
# Processed by: cddbd v1.5.1PL2 Copyright (c) Steve Scherf et al.
# Submitted via: CDex 1.51
#
DISCID=ea11df10
DTITLE=Daft Punk - Musique vol.1 (1993 - 2005)
DYEAR=2006
DGENRE=Electronica/Dance
TTITLE0=Musique
TTITLE1=Da Funk
TTITLE2=Around The World (Radio Edit)
TTITLE3=Revolution 909
TTITLE4=Alive
TTITLE5=Rollin' and Scratchin'
TTITLE6=One More Time (Short Radio Edit)
TTITLE7=Harder Better Faster Stronger
TTITLE8=Something About Us
TTITLE9=Robot Rock
TTITLE10=Technologic (Radio Edit)
TTITLE11=Human After All
TTITLE12=Mothership Reconnection (Feat Parliament/Funkadelic) (Daft Punk Remix)
TTITLE13=Ian Pooley '' Chord Memory '' (Daft Punk Remix)
TTITLE14=Gabrielle - Forget About The World (Daft Punk Remix)
TTITLE15=Digital Love
EXTD=YEAR: 2006
EXTT0=
EXTT1=
EXTT2=
EXTT3=
EXTT4=
EXTT5=
EXTT6=
EXTT7=
EXTT8=
EXTT9=
EXTT10=
EXTT11=
EXTT12=
EXTT13=
EXTT14=
EXTT15=
PLAYORDER=
